<svg xmlns="http://www.w3.org/2000/svg" width="6" height="6" viewBox="0 0 24 24">
  <!-- Outer ring -->
<!--  <path fill="#1C453B" stroke-width="0" d="M19.071 4.929A10 10 0 1 0 12 22h.081a10 10 0 0 0 6.99-17.071ZM12 18.667A6.667 6.667 0 1 1 12 5.333a6.667 6.667 0 0 1 0 13.334Z"/>-->
  <path
      fill="#1C453B"
      d="M19.071 4.929A10 10 0 1 0 12 22h.081a10 10 0 0 0 6.99-17.071ZM12 20A8 8 0 1 1 12 4a8 8 0 0 1 0 16Z"
  />
  <!-- Center dot (transparent fill) -->
  <g transform="translate(4,4)">
    <path
      d="M8.00024 7.1582C8.69255 7.15838 9.25024 7.71586 9.25024 8.4082C9.25007 9.1004 8.69244 9.65803 8.00024 9.6582C7.3079 9.6582 6.75042 9.10051 6.75024 8.4082C6.75024 7.71575 7.30779 7.1582 8.00024 7.1582Z"
      stroke="#1C453B"
      stroke-width="1.5"
      fill="none"
    />
  </g>
</svg>


