<svg width="16" height="17" viewBox="0 0 16 17" fill="none" xmlns="http://www.w3.org/2000/svg">
<path d="M8 10.408C10.67 10.408 16 11.748 16 14.408V15.408C16 15.958 15.55 16.408 15 16.408H13.6572C12.8334 14.0778 10.6123 12.408 8 12.408C5.38772 12.408 3.16657 14.0778 2.34277 16.408H1C0.45 16.408 0 15.958 0 15.408V14.408C0 11.748 5.33 10.408 8 10.408ZM8 13.8083C9.82375 13.8083 11.3996 14.8694 12.1436 16.408H3.85645C4.60037 14.8694 6.17625 13.8083 8 13.8083ZM8 0.407959C10.21 0.407959 12 2.19796 12 4.40796C12 6.61796 10.21 8.40796 8 8.40796C5.79 8.40796 4 6.61796 4 4.40796C4 2.19796 5.79 0.407959 8 0.407959Z" fill="#CD4E00"/>
</svg>
